<svg id="Layer_1" data-name="Layer 1" xmlns="http://www.w3.org/2000/svg" viewBox="0 0 3628.35 3628.35"><defs><style>.cls-1{fill:#030202;}.cls-2{fill:#070707;}.cls-3{fill:#292929;}.cls-4{fill:#181818;}.cls-5{fill:#191919;}.cls-6{fill:#551012;}.cls-7{fill:#010101;}.cls-8{fill:#606060;}.cls-9{fill:#861819;}.cls-10{fill:#411a0d;}.cls-11{fill:#ed2824;}.cls-12{fill:#3d3d3d;}.cls-13{fill:#401a0d;}.cls-14{fill:#ec2824;}.cls-15{fill:#f8b518;}.cls-16{fill:#b02524;}.cls-17{fill:#c82b26;}.cls-18{fill:#e72725;}.cls-19{fill:#ce2927;}.cls-20{fill:#ce2b27;}.cls-21{fill:#c52b26;}.cls-22{fill:#ae3226;}.cls-23{fill:#ba2724;}.cls-24{fill:#c32c26;}.cls-25{fill:#040404;}.cls-26{fill:#060302;}.cls-27{fill:#070302;}</style></defs><path class="cls-1" d="M1,1934.19V1694.12c10.94-61.84,10-124.69,13.41-187,11.08-205,85.37-389.21,180.54-564.65C378.68,603.75,643.1,349.24,980.16,173.69,1192.39,63.15,1416.48,3.41,1655.57,7.21c11.9.19,24.77,3.46,35.24-6.15h234.35c98,12,197,11.43,295,24.33,28.31,3.73,55.93,9,83,17.85,55.19,37.05,117.2,59.51,178,83.9q662.07,265.42,974.6,919.14c76.1,160.14,151.55,321.59,154.75,506,.38,21.86,1.45,46.66,16.77,66v417c-15.21,19.39-16.49,44.2-16.74,66.05-1.6,139.33-40.64,269.57-93.32,395.3-74.63,178.12-167.31,344.61-292.16,493.39-170.17,202.79-371.19,360.32-606.66,473.33-162.5,78-329.34,139.36-511.56,146.32-27.44,1.05-58-1-83,17.59h-394.7c-37.82-20.18-79.41-17.42-119.91-19.59-139.93-7.49-266.61-61.58-392.84-116.65-246.38-107.49-464.44-257.58-648-458.34-159-174-276.5-374.79-360.73-596.2-17.23-45.3-39.49-87.53-61.69-130.12C11.21,2205.6,17.13,2099.56,7.09,1995.6,5.12,1975.13,13,1953.61,1,1934.19Z"/><path class="cls-2" d="M2023.83,3627.25c19.78-30.42,53.2-31,82.47-35.48,309.25-47.54,588.56-168,835-364.38,309.73-246.79,516.06-565.1,616.3-954.85,14.15-55,27.38-109.81,35-166.2,3.63-26.83,9.49-54.41,34.69-71.07q0,773.88,1,1547.76c.12,37.69-7.4,45.39-44.2,45.28Q2804,3626,2023.83,3627.25Z"/><path class="cls-3" d="M1690.81,1.06c-103.46,25-209.89,31-313.59,57-359.6,90.12-666.31,273.27-914.34,552.45-261.76,294.65-416.09,642-450.36,1041.89C11.31,1666.56,5,1680.23,1,1694.12Q1,871.22,0,48.32C-.11,8.82,8.81-.06,47.2.05Q869,2.27,1690.81,1.06Z"/><path class="cls-4" d="M2295.19,76.86C2197.43,36,2093.31,27.17,1990.12,14.12c-22.08-2.79-45.34,2.14-65-13.06q829.48,0,1659-1.06c36.79-.1,44.36,7.58,44.21,45.28-1.65,419.05-1,838.11-1,1257.16-47.43,30.74-66.56.44-80.52-39.6-49.81-142.83-117.29-276-199.11-402.63-158.7-245.57-362-441.28-609-591.3C2599,184.11,2449.38,125.42,2295.19,76.86Z"/><path class="cls-5" d="M1,1934.19c11.68,69.6,25.3,138.94,34.43,208.9,7.11,54.47,23.66,105.81,39.73,157.57C136,2478.85,207.33,2651,312.36,2808.41c139.55,209.18,312.61,381,517.93,520.33,144.15,97.79,298.4,174.61,461.54,232.9,30.47,10.88,59.82,22.42,41.28,65.61-428.76,0-857.52-.65-1286.28,1.09C7.54,3628.5,0,3618.2.07,3579.63Q2.11,2756.91,1,1934.19Z"/><path class="cls-2" d="M1333.11,3627.25c-5.34-20.81-21.11-29.5-39.09-36.47-234.13-90.82-449.31-216.25-640.17-382-280.34-243.39-484.36-539.54-578.69-908.16,38.88,58,52.19,127.11,79,190.39,204.15,481.87,548.94,811.87,1024.9,1001.41,117,46.58,238.07,76.94,361.72,98.14,31.23,5.36,66.71,4.94,88.35,36.65Z"/><path class="cls-2" d="M2295.19,76.86c143.73,24.35,274.11,86.66,400,156.64,298.61,165.91,533.34,402.37,714.14,696.17,61.47,99.88,113.81,204.38,155.43,314.4,11.69,30.89,23.46,59.31,62.49,58.37v315.88c-30.26-22-32.15-56.7-38-89.49-73.27-408.39-259.09-754-559.08-1032.33-192.1-178.24-414.83-305.76-661.57-388.56C2343.51,99.52,2319.63,87.31,2295.19,76.86Z"/><path class="cls-6" d="M1795.65,3540.3c-462.19-11.28-863.18-175-1197.21-506.76-282.1-280.18-449.88-621.4-494.63-1018.72C50.54,1542,171.89,1113.94,467.31,743.91,764.89,371.18,1152.91,155,1617.87,106.23c595.43-62.49,1105.93,134,1508.36,591.68,238.39,271.1,370.33,594.35,404.45,961.22,32.86,353.32-32.78,684.68-204.73,988.33-233,411.54-575.36,689.41-1025.74,819.91C2135.79,3515,1969.07,3549,1795.65,3540.3Z"/><path class="cls-7" d="M3282.05,1841.1c11.2,814.94-664.58,1506.75-1472.8,1498.06C1027,3330.76,358.73,2680.11,361,1833,363.29,993,1013.44,330.5,1826.25,331.89,2637,333.29,3290.7,1009.8,3282.05,1841.1Z"/><path class="cls-8" d="M1607.57,985.56l-21-36.52c-15.75-13.06-36.24-27-29.91-49.37,5.22-18.48,27.36-13.29,43.44-13.2,55.6,11.71,110,38.8,168.55,14.1l21-17.2c40.22-24.29,63.55,7.66,82.15,32.17,39.55,52.13,76.73,103.29,147.7,112.26,21.53,2.71,25.32,24.25,25.08,44.68-.2,17.84-10.37,37.27,6.83,52.8q7.5,12.69,15,25.37c76.12,61.16,148.54,127.16,228.39,183.47a77.71,77.71,0,0,0,8.09,7.52c36.16,16.69,61.28,47.72,89.94,73.86,45.17,41.2,44,48.91-4.55,82.24-10.25,7-21.23,12.37-32.39,17.49-114.59,28.52-149.25,131.2-196.81,222.1-15,28.65-15.72,56,3.8,82.3q152,204.93,304.45,409.54c12.48,16.73,28.15,30.41,48.69,36.59,33.15,15.34,58.22-3.61,83.64-20.78,17.24-11.66,35.77-25.36,54.63-7,19.2,18.71,14.54,42.83,1.61,62.83-25.71,39.76-51.38,80.65-96.42,100.85-21.29,9.56-45.65,23.77-57.2-13.6,9.36-41.5-14.37-66.62-41.82-90.57-71.48-62.35-150.36-115.55-216.64-184.29-44.17-43.21-87.36-87.87-136.87-124.53-36.83-27.27-58.23-62.38-68.39-106.35q-1.38-5.44-3.09-10.79c-34.85-38.36-79.08-38.78-120.91-1.16-39.91,35.89-43.85,64.32-7.78,107.64,47.81,57.43,88.11,121.22,141.22,174.07,17.86,17.78,31.68,38.93,43.32,60.91,23.2,43.79,5.5,86.84-41.32,86.71-104.64-.28-208.64-10.67-300.53-71.27-50.46-33.27-63.54-89.54-84.56-141.05a67.79,67.79,0,0,1-6.7-9.59c-17.71-27.85-7.67-57.23-3.26-85.68,5.53-35.65,7.74-70.89.1-106.36-.2-47.19-29.28-65.31-69.42-71.39-46.18-7-92.41-13.69-138.76-19.58-128-16.24-175.58-70.57-181.62-205.15-2-28.32,14.35-45.33,33.61-62.78,47.36-42.87,91.68-89.12,141.14-129.75,18.11-14.87,37.61-31.26,38.08-62.53-57.25,33.29-103,81.17-152.39,124.15-24.5,21.33-43.42,51.46-80.78,51.65-53.49-22.72-64.67-51.5-31.71-99.51,36.7-53.47,83-99.21,137.16-133.92,84.16-54,156.56-121,222.4-196.27C1596.37,1053.64,1618.3,1025.87,1607.57,985.56Z"/><path class="cls-9" d="M2949.29,2010.37c-1.54-30.54,13.85-56.71,20.8-85.07,5.43-22.13,1.59-41.58-17.58-56.08-18-13.59-35.18-7-52,1.77-9.06,4.75-17.31,11.17-25.68,17.2-23.33,16.82-47.58,48.77-69.53,47.16-30.68-2.26-12.56-45.58-23.72-69.21-14.71-31.13-38.48-34.32-66.47-32.52Q2633.3,1710.53,2558.18,1583c-7.81-13.32-2.57-28.58,8.28-40.32,69.16-54,68.44-74.17-4.43-129.12q-115.17-86.83-230.25-173.81c-34.34-54.86-81-97.68-130-137.92-19.07-15.66-39.09-29.86-53.13-50.86,11.83-48.83,25.06-97.36,34.84-146.61,4.41-22.23,5.35-47.44-17.54-62.71-22.39-14.94-42.66-4.36-63.27,6.93-102.43,56.14-102.75,56.14-180.22-34.6Q1867.73,750,1814.81,684.28c-17.3-21.44-37.93-33.33-64.56-25.4-28.77,8.57-33.46,33.91-34.24,60.4-.25,8.41-1.51,17-.22,25.2,8.73,55.09-17.5,61.64-62.94,53.19-108.67-20.2-218.11-36-326.83-55.89-28.09-5.15-50.26-2-62.14,24.68-12,27.09,1.5,48.58,22.79,65.41q72.94,57.68,145.94,115.31c1.49,29.18-15.06,45.76-37.52,59.92-167.82,105.84-335.44,212-504.1,316.48-22.39,13.87-45.06,18.6-70.31,17.36-29.06-1.43-51.55-14.1-65.44-40.15-14.86-27.88-4.7-52.09,12-75.74,85.67-121,182.17-232.71,278.23-344.83,48.7-56.84,99-112.29,145.12-171.39,40-51.26,90.13-86.82,153.72-96.72,163.56-25.46,326.43-56.1,488.42-89.1,116.85-23.8,205.08.39,298.8,76.17,239.93,194,485.28,381.27,733.17,564.6,70.18,51.91,104.24,112.59,109.95,197.48,10.86,161.42,32.78,321.71,49.74,482.52,4.85,46,4.56,92.78-22.33,134.19C2989.4,1997.53,2977.87,2018.3,2949.29,2010.37Z"/><path class="cls-10" d="M838.78,2806.77c32.26,9.27,54.26,34,76.2,57.9,21.55,23.45,47,33.39,77.59,29,43-6.11,65.16-27.44,44.92-73.39-45.61-103.54-92.53-206.47-138.17-310-8-18.12-29.67-38.77-12.87-56.86,17.09-18.41,36.75,7.83,56,10.69a32.94,32.94,0,0,1,11.64,4.07c80.39,47.26,152,42,225.14-22.82,59.75-53,64.34-47.53,109.68,20.4,76.69,114.89,76.69,114.89,198.32,52.59,5.51-2.83,11-5.62,16.56-8.45,116.58-59.71,117-60,192,51,28.47,42.15,61.83,51.68,105.14,24.43,52.49-33,106.54-63.59,158-98.21,35.79-24.09,66-24.24,101.24,1.9q119.64,88.9,242.91,172.62c27.13,18.34,22.49,28,1.43,45.61-23.76,19.9-45.78,42.18-67.05,64.91-15.61,16.66-21.08,37.72-5.08,56.91,15.43,18.5,36.6,16.71,56.75,8,7.36-3.17,13.65-9.2,20-14.43,94.16-77.08,94-76.9,190-2.85,37.72,29.1,75.07,59,114.71,85.1,43.77,28.85,51.8,50,2.52,85.1-182.21,129.65-382,213.92-601.27,244.32-419.33,58.13-787.1-64.58-1108.4-342.25-27.33-23.63-54-48.07-81-72.14Q832.28,2813.41,838.78,2806.77Z"/><path class="cls-11" d="M2949.29,2010.37c42.88-48.71,53.88-105.48,46.33-169.68q-31.3-266-58.21-532.57c-3.67-36.89-16.82-61.87-45.54-83.83Q2457.32,892.09,2024.1,558c-24.3-18.71-48.17-24.65-79.91-19.77-188.56,29-377.33,56.75-566.58,80.4-48.35,6-86,21.77-117.63,58.53Q1023.82,952,786.84,1226c-15.73,18.23-28.19,38-15.29,62.52,12.43,23.63,35.45,25.84,58.9,25.83,19.61,0,35.29-9.59,51.12-19.59q275.48-173.86,551-347.6c71.9,42.56,71.42,42,7.71,96.35C1171.58,1273,871.83,1458,589.26,1667.65c-21.54,16-44.32,25.56-67.1,5.21-26.85-24-12.82-48.54,2-73Q797.29,1150,1069.46,699.57c19.29-32,45.93-45.75,79-53.29Q1579.76,548,2010.89,449c29.81-6.88,53.77-6.21,80,14.55q450.9,357,904,711.05c45.31,35.29,65.62,74.06,65.11,132.72-2.18,250.54-5.48,501.24,1.51,751.6,2.5,89.78-19.47,161.87-81.31,218.16-67,61-112.48,138.55-169,207.48-5,6.07-11.77,10.58-30.62,27.18C2838.51,2333.75,2884.05,2168.73,2949.29,2010.37Z"/><path class="cls-12" d="M1664.86,2087.41c46.76,34.31,62.71,96.94,116.29,126.65,82,45.5,172.31,47.83,260.78,60.52,13.53,1.94,30.36,2.1,37.07-14.84,6.45-16.27-5.37-27.76-14.4-38.75-63.08-76.88-130.39-150.32-175.72-241-20.32-40.66-15.18-77.22,10.65-111.33,25.32-33.45,61.48-38.78,99.9-33.82,20.82,2.69,32.93,15.29,36,36.73-45.76-28.19-111.38-11.41-135.76,34.45-21.31,40.09,10.18,59,32.68,77.51q177.57,145.79,357.55,288.49c102.41,81.14,103.36,80.68-2.2,151.53-104.57,70.19-76.22,72.44-167.4-1.12-81.25-65.55-147-68.53-222.57-2.51-46.7,40.77-78.83,36.61-128.82-13.48C1677,2314.31,1620.83,2221,1664.86,2087.41Z"/><path class="cls-12" d="M2502.23,2388.09c82-5.57,107.33-75.39,153.52-136.41-54.15-5.5-92.33,64.78-139.78,14.07,82.87-22.7,133.63-94.18,201.47-139.78,37.17-25,71.27-54.77,106.84-82.45,17.74,21.54,4.39,37.06-.07,51-47.14,147.6-97.41,294.18-142.73,442.36-16.86,55.12-37.76,50.92-70.62,17.14-11.57-11.89-23.51-23.48-36-34.29-62.66-54.08-82.61-54.88-151.41-6.6-23.65,16.6-46.62,34.26-70.76,50-22.13,14.47-41.11,2.54-53.44-14.9-18.52-26.18,9.52-31.05,22.72-40.05C2381.63,2467.55,2442.06,2428,2502.23,2388.09Z"/><path class="cls-13" d="M2881.15,2557c-28.05,99.66-7,215.36-101.72,292.27-31.48,25.56-52.11,31-84.81,6-78.7-60.33-160.06-117-239.24-176.67-17.15-12.93-55.52-26.85-29.71-54.43,23.76-25.39,56.55-64.09,100.42-28.43,38.44,31.24,73.92,66.3,112,98.1,61.69,51.58,86.53,47.06,135.73-15.26C2806.74,2636.77,2831.38,2587.6,2881.15,2557Z"/><path class="cls-14" d="M2566.46,1542.72c25.77,61.48,69.23,111.12,106.12,165.07,26.1,38.17,48.48,76.73,42.54,125.83l-80.8,101.8c-36.33-70.9-69.68-136.6-103.65-202-10.49-20.18-23.84-38.84-33.77-59.28-15.29-31.46-67.53-65-51.69-84C2471.07,1559.06,2520.1,1543.58,2566.46,1542.72Z"/><path class="cls-12" d="M1607.57,985.56c21.73,41.24,6.39,77.07-16.9,110.6-55.22,79.48-127,141.26-206.68,192.79-61.52,39.8-113,88.8-154.68,149.28-18.2,26.39-19,46.48,17.6,54,6.24,52.29-36.88,68.5-66.05,95-21.08,6.34-32.45-7.34-43.28-22.15,2.47-18.65,11.64-39.67,6.29-55.54-26.35-78.08,15.93-118.35,70.16-161.5,121.48-96.66,238.76-198.85,357.78-298.75C1591.63,1032.64,1605.66,1012.7,1607.57,985.56Z"/><path class="cls-12" d="M1282.91,1579.84c28.88,149.09,67.93,182.87,231.62,202.5,30.2,3.62,60.51,8.67,89.89,16.53,42.69,11.42,64.47,41.46,64.44,87.22-.61,15.52-.54,31.37-17.9,38.77-5.78.59-8.76-2.24-9.34-8,7-60.69-27.2-73.72-78.32-85.52-108.67-25.09-213.21,4.58-319.45,11.43-8.76-5-24.08-8.38-24.26-16.94-1.48-72.54-50.64-134.43-43.66-208.59C1206,1588.24,1239.23,1568.25,1282.91,1579.84Z"/><path class="cls-15" d="M1187.58,1618c32.25,71.37,45,147.87,56.27,224.74-54.91,25.62-114.43,17.59-175.76,19,26.84-17.06,53.39-34.61,80.59-51,26.29-15.89,51.25-34.5,33-69.07-18.93-35.9-47.79-21.94-73.78-6.67-33.18,19.48-66,39.59-110.56,66.4,41.94-92.34,110.41-152.57,140.2-236.25,18.42-11.65,22.66,9.76,33.77,15.15C1188.32,1587.62,1193.51,1600.31,1187.58,1618Z"/><path class="cls-16" d="M1557.12,2378c-30.52,25.39-51.25,27.17-51-22.1,0-8.36,1.2-17.33-1.25-25-55.36-173.14,39.31-294.08,136.79-414.1a15.71,15.71,0,0,1-.27,8.6c28.85,50,22.62,75.65-33.57,138.11-22.31,14.63-28.07,40-38.44,62.34-27.81,66.45-53,133.23-13.78,204.24C1564.51,2346.33,1560.68,2361.94,1557.12,2378Z"/><path class="cls-17" d="M2051.35,1125.28c-23.44-9.48-10.33-32.92-17.69-48.52s-6.52-36.47-31.61-39.81c-63.22-8.43-104.22-51.62-140-100.6-19-26-42.24-44.06-72.51-53,3.89-20.26,7.77-40.52,12.92-67.35,47.73,38.72,78,87,113.6,129.81,64,76.91,63.5,77.33,153.32,34.55C2078.62,1031.62,2042.68,1076,2051.35,1125.28Z"/><path class="cls-18" d="M2148.62,1051c96.14,27.21,155,92.37,183.16,188.78-53.39-43.55-106.45-87.55-160.36-130.42C2151.94,1093.88,2142,1076.32,2148.62,1051Z"/><path class="cls-19" d="M1557.12,2378c-57.23-85.46-51.8-197.44,12.23-252.14-3.93,35.27-7.73,70.55-11.83,105.79-3.69,31.74-6.36,62.73,20.77,87.11C1620.18,2356.44,1590.33,2368.07,1557.12,2378Z"/><path class="cls-12" d="M2038.51,1882.35c58.42,86.29,155.72,136.31,205.27,230.87-74.18-38.2-130.22-101.35-196.75-150.08C2015,1939.68,2035.48,1909.94,2038.51,1882.35Z"/><path class="cls-20" d="M1607.79,2063.55c-10.22-51.49,44.62-86.39,33.56-138.1q13.76-19.68,27.5-39.35c24,65.51,19,129.33-10.72,191.7Z"/><path class="cls-21" d="M2355.84,1515.23c58.72-59.81,58.5-59.57-2.43-119-17.7-17.27-33.74-36.32-50.55-54.55,65.88,20.26,110.47,73.78,165,111.78,19.61,13.68,6,24.61-9.17,29.52C2424.46,1494,2393.89,1517.21,2355.84,1515.23Z"/><path class="cls-22" d="M2294.75,1334.12c-92.73-39.47-160.08-112.09-228.39-183.46C2151.05,1200.62,2228.55,1260,2294.75,1334.12Z"/><path class="cls-23" d="M1605,895.9c-68.79-5.13-28.88,29.38-18.45,53.14l-118.24-87.5c62.38,0,107.07,8.15,150.94,22.44C1618,892.39,1610.1,892.4,1605,895.9Z"/><path class="cls-24" d="M1605,895.9,1619.22,884l149.37,16.59C1712.7,949,1659,917.46,1605,895.9Z"/><path class="cls-25" d="M1187.58,1618q-8.11-18.88-16.24-37.77c10.7-42.4,48.5-60.41,75.57-88.07,63.86-58.6,127.91-117,191.5-175.9,24.47-22.67,52.29-42.07,79.77-12.21,30.06,32.67,1.22,57-21.54,78.23-71,66.17-142.44,131.73-213.72,197.53C1255.53,1604.07,1227.8,1627.43,1187.58,1618Z"/><path class="cls-26" d="M1857.63,3169.94c-15.4.89-28.7-3.21-36.39-18-8.71-16.72-6.63-34.29,5.57-46.9,89.42-92.39,178.4-185.31,270.46-274.89,23.27-22.64,56.4-15.49,75.93,12.22,37.16,52.72,71.7,107.4,106.55,161.78,12.59,19.64,13.75,39.81-7,55.54-19,14.39-38.7,12.93-56.6-1.82-27.76-22.88-45.68-54.1-61.36-85.75-20.27-40.9-40.74-39.19-69.43-8.7-52.63,55.91-107,110.12-160.59,165.07C1905.71,3148,1885.72,3165.86,1857.63,3169.94Z"/><path class="cls-26" d="M1173.56,2800.21c3.44,20.59,8.78,41.08,9.85,61.8,1.29,25.23-9.5,46.2-35,52.14-24.44,5.7-40.79-11.5-46-32.2-17.81-70.66-38.72-141.26-39.5-214.89-.5-46.86,28.32-59.69,66-40.32q104,53.45,204.62,113.78c24.93,14.92,48.28,40.23,27.31,72.66-19.46,30.09-47.42,13.82-71.39,2-25.79-12.7-51.67-25.51-76.16-40.58C1181.54,2755.1,1173.43,2769.7,1173.56,2800.21Z"/><path class="cls-27" d="M1296.42,2999.37c7.85-37.07,15.54-76.75,38-110.07,18-26.74,41.46-41.23,72-14.56,70.14,61.15,141.15,121.26,210.79,183,15.94,14.13,26.6,34.21,10.64,55.69s-39,26.94-59.87,11.56c-43.17-31.73-85.76-64.74-125.42-100.88-28.38-25.85-49-47.93-69.25,6.93-7.59,20.61-28.65,30.49-51.62,22.6C1297.15,3045.19,1297.28,3022.89,1296.42,2999.37Z"/><path class="cls-26" d="M1525.44,2559.66c25.36.55,39.14,19.93,50.55,39.56,23,39.69,44.69,80.29,65.56,121.23,12.8,25.13,21.94,54.64-3.81,74.82-27.65,21.65-50,2.31-66.93-21.61-29.88-42.25-42.61-20.83-57.12,13.27-13.24,31.11-11,90-63.35,72.37-50.5-17-27.47-66.85-18-104.18,12.31-48.78,27.21-96.89,41.79-145C1481.83,2584.52,1497.31,2565.84,1525.44,2559.66Z"/><path class="cls-27" d="M1960.76,2802.1c.7,23.72-3,40-20.13,48.14-19.15,9.1-39.84,4.5-49.39-12.45-30-53.16-58.2-35.87-89.73-2.79-11.26,11.81-26.43,19.61-39.12,30.12-21.24,17.61-41.44,17.61-58.68-4.46-16.4-21-15.77-44.67,3.6-62.11,44.39-40,90.64-77.78,136.32-116.24,23.85-20.1,49.9-13.92,65.54,6.74C1935.32,2723.62,1950.57,2765.19,1960.76,2802.1Z"/></svg>